<svg width="100" height="100" viewBox="0 0 100 100" fill="none" xmlns="http://www.w3.org/2000/svg">
<path d="M96 51.5C96 57.6065 94.7972 63.6531 92.4604 69.2948C90.1235 74.9364 86.6984 80.0625 82.3805 84.3805C78.0625 88.6984 72.9364 92.1235 67.2948 94.4604C61.6531 96.7972 55.6065 98 49.5 98C43.3935 98 37.3469 96.7972 31.7052 94.4604C26.0636 92.1235 20.9375 88.6984 16.6195 84.3805C12.3016 80.0625 8.87644 74.9364 6.5396 69.2948C4.20276 63.6531 3 57.6065 3 51.5L38.5102 51.5C38.5102 52.9432 38.7945 54.3723 39.3468 55.7056C39.899 57.0389 40.7085 58.2505 41.729 59.2709C42.7495 60.2914 43.961 61.1009 45.2944 61.6532C46.6277 62.2055 48.0568 62.4898 49.5 62.4898C50.9432 62.4898 52.3723 62.2055 53.7056 61.6532C55.0389 61.1009 56.2505 60.2914 57.2709 59.2709C58.2914 58.2505 59.1009 57.0389 59.6532 55.7056C60.2055 54.3723 60.4898 52.9432 60.4898 51.5H96Z" fill="#F0F0F0"/>
<path d="M59 96C59 96 86.5004 83.9999 88.0004 82.4999C89.5004 80.9999 99.0004 53 99.0004 53H78.9733C78.9733 60 75.2304 86.2801 59 96Z" fill="#E0E0E0"/>
<path d="M3 49.5C3 43.3935 4.20276 37.3469 6.5396 31.7052C8.87645 26.0636 12.3016 20.9375 16.6195 16.6195C20.9375 12.3016 26.0636 8.87644 31.7052 6.5396C37.3469 4.20276 43.3935 3 49.5 3C55.6065 3 61.6531 4.20276 67.2948 6.5396C72.9364 8.87645 78.0625 12.3016 82.3805 16.6195C86.6984 20.9375 90.1235 26.0636 92.4604 31.7052C94.7972 37.3469 96 43.3935 96 49.5L61.5307 49.5C61.5307 47.9201 61.2195 46.3557 60.6149 44.896C60.0103 43.4364 59.1241 42.1102 58.007 40.993C56.8898 39.8759 55.5636 38.9897 54.1039 38.3851C52.6443 37.7805 51.0799 37.4693 49.5 37.4693C47.9201 37.4693 46.3557 37.7805 44.896 38.3851C43.4364 38.9897 42.1102 39.8759 40.993 40.993C39.8759 42.1102 38.9897 43.4364 38.3851 44.896C37.7805 46.3557 37.4693 47.9201 37.4693 49.5L3 49.5Z" fill="#EE1515"/>
<path d="M59 5L90.5004 20.4999L99.0004 48H78.9733C78.9733 41 75.2304 14.7199 59 5Z" fill="#E01111"/>
<path d="M96.5 50C96.5 75.6812 75.6812 96.5 50 96.5C24.3188 96.5 3.5 75.6812 3.5 50C3.5 24.3188 24.3188 3.5 50 3.5C75.6812 3.5 96.5 24.3188 96.5 50Z" stroke="black" stroke-width="7" stroke-linejoin="round"/>
<circle cx="50" cy="50" r="10.5" fill="white" stroke="black" stroke-width="5"/>
<rect x="2.00037" y="47.9999" width="36" height="5" fill="black"/>
<rect x="62.0004" y="47.9999" width="35" height="5" fill="black"/>
</svg>
